<svg width="1348" height="758" viewBox="0 0 1348 758" fill="none" xmlns="http://www.w3.org/2000/svg">
<path d="M9.6989 758H8.72325L0 751.23V750.474L9.6989 758Z" fill="#4081FF"/>
<path d="M50.6967 758H49.7574L0 716.85V716.074L50.6967 758Z" fill="#4081FF"/>
<path d="M89.5321 758H88.6188L0 679.842V679.038L89.5321 758Z" fill="#4081FF"/>
<path d="M124.917 758H124.035L0 641.56V640.734L124.917 758Z" fill="#4081FF"/>
<path d="M158.773 758H157.927L0 600.013V599.166L158.773 758Z" fill="#4081FF"/>
<path d="M189.835 758H189.006L0 556.794V555.915L189.835 758Z" fill="#4081FF"/>
<path d="M219.772 758H218.974L0 509.532V508.627L219.772 758Z" fill="#4081FF"/>
<path d="M247.488 758H246.712L0 459.875V458.936L247.488 758Z" fill="#4081FF"/>
<path d="M274.382 758H273.625L0 405.106V404.129L274.382 758Z" fill="#4081FF"/>
<path d="M299.466 758H298.717L0 346.98V345.956L299.466 758Z" fill="#4081FF"/>
<path d="M323.931 758H323.207L0 282.214V281.149L323.931 758Z" fill="#4081FF"/>
<path d="M346.87 758H346.161L0 212.717V211.6L346.87 758Z" fill="#4081FF"/>
<path d="M369.408 758H368.713L0 134.255V133.078L369.408 758Z" fill="#4081FF"/>
<path d="M390.65 758H389.967L0 48.8877V47.6457L390.65 758Z" fill="#4081FF"/>
<path d="M411.627 758H410.956L24.9356 0H25.6062L411.627 758Z" fill="#4081FF"/>
<path d="M431.504 758H430.843L74.0376 0H74.6992L431.504 758Z" fill="#4081FF"/>
<path d="M451.25 758H450.597L122.79 0H123.442L451.25 758Z" fill="#4081FF"/>
<path d="M470.008 758H469.365L169.15 0H169.793L470.008 758Z" fill="#4081FF"/>
<path d="M488.735 758H488.096L215.407 0H216.043L488.735 758Z" fill="#4081FF"/>
<path d="M506.66 758H506.02L259.657 0H260.289L506.66 758Z" fill="#4081FF"/>
<path d="M524.587 758H523.963L303.959 0H304.582L524.587 758Z" fill="#4081FF"/>
<path d="M541.816 758H541.198L346.514 0H347.132L541.816 758Z" fill="#4081FF"/>
<path d="M559.146 758H558.533L389.319 0H389.932L559.146 758Z" fill="#4081FF"/>
<path d="M575.867 758H575.259L430.616 0H431.225L575.867 758Z" fill="#4081FF"/>
<path d="M592.772 758H592.167L472.346 0H472.951L592.772 758Z" fill="#4081FF"/>
<path d="M609.129 758H608.503L512.709 0H513.342L609.129 758Z" fill="#4081FF"/>
<path d="M625.702 758H625.1L553.69 0H554.292L625.702 758Z" fill="#4081FF"/>
<path d="M641.834 758H641.235L593.531 0H594.13L641.834 758Z" fill="#4081FF"/>
<path d="M658.261 758H657.661L634.095 0H634.694L658.261 758Z" fill="#4081FF"/>
<path d="M674.299 758H673.701V0H674.299V758Z" fill="#4081FF"/>
<path d="M690.697 758H690.099L714.193 0H714.791L690.697 758Z" fill="#4081FF"/>
<path d="M706.765 758H706.165L753.869 0H754.469L706.765 758Z" fill="#4081FF"/>
<path d="M723.263 758H722.661L794.606 0H795.207L723.263 758Z" fill="#4081FF"/>
<path d="M739.497 758H738.891L834.685 0H835.292L739.497 758Z" fill="#4081FF"/>
<path d="M756.235 758H755.629L875.997 0H876.603L756.235 758Z" fill="#4081FF"/>
<path d="M772.741 758H772.132L916.775 0H917.384L772.741 758Z" fill="#4081FF"/>
<path d="M789.841 758H789.228L958.994 0H959.606L789.841 758Z" fill="#4081FF"/>
<path d="M806.802 758H806.184L1000.87 0H1001.49L806.802 758Z" fill="#4081FF"/>
<path d="M824.432 758H823.808L1044.39 0H1045.02L824.432 758Z" fill="#4081FF"/>
<path d="M841.979 758H841.35L1087.71 0H1088.34L841.979 758Z" fill="#4081FF"/>
<path d="M860.311 758H859.672L1132.96 0H1133.6L860.311 758Z" fill="#4081FF"/>
<path d="M878.634 758H877.991L1178.21 0H1178.85L878.634 758Z" fill="#4081FF"/>
<path d="M897.849 758H897.196L1225.64 0H1226.29L897.849 758Z" fill="#4081FF"/>
<path d="M917.156 758H916.495L1273.3 0H1273.96L917.156 758Z" fill="#4081FF"/>
<path d="M937.496 758H936.824L1323.51 0H1324.18L937.496 758Z" fill="#4081FF"/>
<path d="M1348 48.8877L958.032 758H957.35L1348 47.6457V48.8877Z" fill="#4081FF"/>
<path d="M1348 136.063L979.772 758H979.076L1348 134.889V136.063Z" fill="#4081FF"/>
<path d="M1348 212.718L1001.84 758H1001.13L1348 211.601V212.718Z" fill="#4081FF"/>
<path d="M1348 283.73L1025.33 758H1024.6L1348 282.639V283.73Z" fill="#4081FF"/>
<path d="M1348 347.015L1049.3 758H1048.56L1348 345.997V347.015Z" fill="#4081FF"/>
<path d="M1348 406.339L1074.94 758H1074.18L1348 405.363V406.339Z" fill="#4081FF"/>
<path d="M1348 459.875L1101.29 758H1100.51L1348 458.936V459.875Z" fill="#4081FF"/>
<path d="M1348 510.615L1129.68 758H1128.86L1348 509.683V510.615Z" fill="#4081FF"/>
<path d="M1348 556.82L1159.02 758H1158.19L1348 555.946V556.82Z" fill="#4081FF"/>
<path d="M1348 601L1190.84 758H1189.99L1348 600.154V601Z" fill="#4081FF"/>
<path d="M1348 641.582L1223.99 758H1223.09L1348 640.739V641.582Z" fill="#4081FF"/>
<path d="M1348 680.656L1260.18 758H1259.28L1348 679.859V680.656Z" fill="#4081FF"/>
<path d="M1348 716.85L1298.24 758H1297.3L1348 716.074V716.85Z" fill="#4081FF"/>
<path d="M1348 751.993L1340.25 758H1339.27L1348 751.236V751.993Z" fill="#4081FF"/>
</svg>
